<svg width="231" height="49" viewBox="0 0 231 49" xmlns="http://www.w3.org/2000/svg"><title>Frau Lieblingsbunt</title><path d="M37.984 7.768c.128.096.152.232.072.408-.08.176-.216.344-.408.504-.192.16-.416.304-.672.432a1.62 1.62 0 0 1-.72.192 39.878 39.878 0 0 1-2.328-.264c-.784-.112-1.56-.232-2.328-.36a5.47 5.47 0 0 0-1.704.84c-.496.368-.952.864-1.368 1.488-.416.624-.816 1.416-1.2 2.376s-.768 2.144-1.152 3.552a77.066 77.066 0 0 0-.624 2.16 22.208 22.208 0 0 1-.672 2.064c.8-.032 1.608-.048 2.424-.048h2.52c.16.064.216.144.168.24-.048.096-.2.176-.456.24-.832 0-1.656.008-2.472.024-.816.016-1.608.04-2.376.072-1.888 5.28-4.264 9.152-7.128 11.616C14.696 35.768 11.28 37 7.312 37c-2.304 0-4.032-.584-5.184-1.752C.976 34.08.4 32.536.4 30.616c0-.928.248-1.856.744-2.784.496-.928 1.208-1.712 2.136-2.352.16 0 .264.064.312.192.048.128.04.24-.024.336-.576.448-1 .936-1.272 1.464-.272.528-.408 1.24-.408 2.136 0 .832.144 1.6.432 2.304a4.87 4.87 0 0 0 1.344 1.848c.608.528 1.392.936 2.352 1.224.96.288 2.112.432 3.456.432 1.6 0 3.04-.232 4.32-.696 1.28-.464 2.456-1.232 3.528-2.304 1.072-1.072 2.064-2.48 2.976-4.224.912-1.744 1.784-3.88 2.616-6.408-1.6.064-3.16.16-4.68.288a75.89 75.89 0 0 0-4.584.528c-.096-.032-.08-.104.048-.216s.312-.224.552-.336c.24-.112.496-.224.768-.336a3.77 3.77 0 0 1 .648-.216 113.21 113.21 0 0 1 3.792-.216 277.7 277.7 0 0 1 3.648-.12 98.38 98.38 0 0 0 .96-3.264 40.553 40.553 0 0 1 1.176-3.624c.4-1.04.856-1.928 1.368-2.664a8.634 8.634 0 0 1 1.704-1.848 8.228 8.228 0 0 1 2.184-1.224 283.44 283.44 0 0 0-4.992-.696 35.43 35.43 0 0 0-4.56-.312c-2.4 0-4.416.512-6.048 1.536-1.632 1.024-2.816 2.64-3.552 4.848a.27.27 0 0 1-.288.024c-.096-.048-.144-.152-.144-.312.704-2.272 2.088-4.096 4.152-5.472 2.064-1.376 4.616-2.064 7.656-2.064 1.184 0 2.376.064 3.576.192 1.2.128 2.424.28 3.672.456 1.248.176 2.536.36 3.864.552a76.17 76.17 0 0 0 4.152.48zm-4.128 18.288c0 .48-.048 1.04-.144 1.68-.096.64-.224 1.28-.384 1.92.64-1.536 1.344-2.744 2.112-3.624.768-.88 1.6-1.32 2.496-1.32.352 0 .672.096.96.288a.924.924 0 0 1 .432.816c0 .256-.096.584-.288.984-.192.4-.384.696-.576.888-.192.128-.288.08-.288-.144 0-.544-.368-.816-1.104-.816-1.12 0-2.128.84-3.024 2.52-.896 1.68-1.744 4.008-2.544 6.984-.064.32-.28.528-.648.624-.368.096-.68.144-.936.144-.352 0-.432-.176-.24-.528.288-.672.56-1.4.816-2.184.256-.784.504-1.576.744-2.376.24-.8.44-1.584.6-2.352.16-.768.288-1.472.384-2.112.128-.96-.032-1.44-.48-1.44-.256 0-.552.144-.888.432a6.292 6.292 0 0 0-.936 1.008c-.128.064-.24.056-.336-.024-.096-.08-.112-.184-.048-.312.48-.608 1.016-1.16 1.608-1.656.592-.496 1.144-.744 1.656-.744.704 0 1.056.448 1.056 1.344zm16.512 7.92c.064-.064.144-.064.24 0s.128.16.096.288c-.672.928-1.336 1.616-1.992 2.064-.656.448-1.208.672-1.656.672-.288 0-.52-.144-.696-.432-.176-.288-.288-.68-.336-1.176a7.573 7.573 0 0 1 .048-1.68c.08-.624.216-1.272.408-1.944-.864 1.344-1.776 2.504-2.736 3.48-.96.976-1.888 1.56-2.784 1.752-.576 0-1.064-.28-1.464-.84-.4-.56-.6-1.432-.6-2.616 0-1.056.216-2.104.648-3.144a10.35 10.35 0 0 1 1.752-2.832 8.886 8.886 0 0 1 2.544-2.04 6.34 6.34 0 0 1 3.024-.768c.576 0 1.072.064 1.488.192.416.128.8.32 1.152.576.192-.16.456-.312.792-.456a2.39 2.39 0 0 1 .936-.216c.16 0 .208.08.144.24a14.95 14.95 0 0 0-1.896 2.976 19.165 19.165 0 0 0-1.224 3.168c-.288 1.024-.472 1.928-.552 2.712-.08.784-.024 1.32.168 1.608.16.224.448.232.864.024.416-.208.96-.744 1.632-1.608zm-8.352 1.392c.352 0 .808-.248 1.368-.744s1.144-1.144 1.752-1.944a27.5 27.5 0 0 0 1.8-2.712 28.868 28.868 0 0 0 1.56-3.048c-.128-.416-.424-.752-.888-1.008s-1-.384-1.608-.384c-.704 0-1.368.184-1.992.552-.624.368-1.176.88-1.656 1.536s-.864 1.432-1.152 2.328c-.288.896-.432 1.888-.432 2.976 0 .704.12 1.288.36 1.752.24.464.536.696.888.696zM54.64 37c-.416 0-.784-.2-1.104-.6-.32-.4-.48-.92-.48-1.56 0-.512.072-1.112.216-1.8.144-.688.336-1.416.576-2.184.24-.768.536-1.536.888-2.304.352-.768.752-1.488 1.2-2.16-.352.256-.72.536-1.104.84-.384.304-.704.584-.96.84-.096.064-.176.04-.24-.072-.064-.112-.08-.216-.048-.312.224-.224.512-.48.864-.768a24.228 24.228 0 0 1 2.376-1.704c.432-.272.84-.504 1.224-.696.128-.032.232 0 .312.096a.36.36 0 0 1 .072.336 17.36 17.36 0 0 0-2.472 4.344c-.624 1.584-.936 3.096-.936 4.536 0 .928.272 1.392.816 1.392.416 0 .936-.28 1.56-.84.624-.56 1.272-1.296 1.944-2.208a38.56 38.56 0 0 0 2.04-3.096 46.54 46.54 0 0 0 1.896-3.504c.096-.224.28-.424.552-.6s.568-.264.888-.264c.416 0 .56.128.432.384a67.114 67.114 0 0 0-1.2 2.328c-.352.72-.64 1.432-.864 2.136a14.117 14.117 0 0 0-.504 2.16 15.99 15.99 0 0 0-.168 2.4c0 1.024.288 1.536.864 1.536.256 0 .544-.136.864-.408.32-.272.64-.632.96-1.08a.24.24 0 0 1 .288 0c.096.064.112.176.048.336a8.21 8.21 0 0 1-1.56 1.752c-.592.496-1.16.744-1.704.744-.416 0-.768-.208-1.056-.624-.288-.416-.432-.976-.432-1.68 0-.768.072-1.592.216-2.472.144-.88.376-1.768.696-2.664a23.034 23.034 0 0 1-1.92 3.144 22.248 22.248 0 0 1-1.944 2.328c-.624.64-1.208 1.128-1.752 1.464-.544.336-.992.504-1.344.504zm50.112-30.912c1.024 0 1.8.336 2.328 1.008.528.672.792 1.504.792 2.496 0 .64-.112 1.312-.336 2.016a13.33 13.33 0 0 1-.768 1.92c-.128.096-.248.12-.36.072-.112-.048-.152-.152-.12-.312a4.86 4.86 0 0 0 .336-1.776c0-.608-.12-1.16-.36-1.656s-.624-.904-1.152-1.224c-.528-.32-1.192-.48-1.992-.48-1.152 0-2.208.216-3.168.648-.96.432-1.848 1.192-2.664 2.28-.816 1.088-1.592 2.568-2.328 4.44-.736 1.872-1.472 4.248-2.208 7.128-.608 2.304-1.312 4.32-2.112 6.048-.8 1.728-1.728 3.184-2.784 4.368a41.873 41.873 0 0 0 4.344 1.44c1.52.416 3.224.624 5.112.624 1.504 0 2.744-.264 3.72-.792s1.832-1.528 2.568-3c.128-.064.24-.056.336.024.096.08.112.2.048.36-.768 1.728-1.792 3.04-3.072 3.936-1.28.896-2.992 1.344-5.136 1.344-1.888 0-3.568-.272-5.04-.816a56.87 56.87 0 0 1-4.272-1.776C84.32 36.136 81.568 37 78.208 37c-1.216 0-2.136-.248-2.76-.744-.624-.496-.936-1.032-.936-1.608 0-.416.12-.84.36-1.272.24-.432.592-.816 1.056-1.152a6.425 6.425 0 0 1 1.656-.84c.64-.224 1.36-.336 2.16-.336 1.248 0 2.456.176 3.624.528 1.168.352 2.36.752 3.576 1.2 1.44-1.856 2.704-4.832 3.792-8.928.704-2.624 1.528-5.032 2.472-7.224s2-4.064 3.168-5.616c1.168-1.552 2.456-2.76 3.864-3.624 1.408-.864 2.912-1.296 4.512-1.296zM79.744 35.992c1.216 0 2.304-.144 3.264-.432.96-.288 1.856-.784 2.688-1.488a27.522 27.522 0 0 0-3.432-1.392c-1.168-.384-2.456-.576-3.864-.576-.896 0-1.536.144-1.92.432-.384.288-.576.656-.576 1.104 0 .64.336 1.192 1.008 1.656.672.464 1.616.696 2.832.696zm27.36-7.92c-.096.064-.184.04-.264-.072-.08-.112-.088-.216-.024-.312.448-.448 1.056-.96 1.824-1.536a15.132 15.132 0 0 1 2.304-1.44c.256 0 .384.144.384.432a33.398 33.398 0 0 0-1.224 2.4c-.4.864-.752 1.72-1.056 2.568a24.64 24.64 0 0 0-.744 2.448c-.192.784-.288 1.432-.288 1.944 0 .672.224 1.008.672 1.008.352 0 .696-.152 1.032-.456a15.02 15.02 0 0 0 1.176-1.224c.064-.064.144-.048.24.048s.112.208.048.336a16.195 16.195 0 0 1-1.848 1.92c-.656.576-1.272.864-1.848.864-.832 0-1.248-.528-1.248-1.584 0-.608.104-1.336.312-2.184a24.962 24.962 0 0 1 1.872-5.064c.4-.8.792-1.488 1.176-2.064-.352.256-.792.584-1.32.984s-.92.728-1.176.984zm4.32-5.424c-.096.096-.184.104-.264.024a.668.668 0 0 1-.168-.336 2.343 2.343 0 0 1-.048-.504c0-.192.048-.352.144-.48.832-1.152 2-2.384 3.504-3.696.096-.032.192-.008.288.072.096.08.112.152.048.216a13.67 13.67 0 0 0-1.92 2.184 23.272 23.272 0 0 0-1.584 2.52zm10.224 4.176c0 .448-.176.864-.528 1.248-.352.384-.832.728-1.44 1.032-.608.304-1.304.584-2.088.84s-1.608.496-2.472.72a23.397 23.397 0 0 0-.096 2.208c0 .8.176 1.472.528 2.016.352.544.848.816 1.488.816s1.24-.16 1.8-.48a5.484 5.484 0 0 0 1.512-1.296c.128-.064.224-.048.288.048.064.096.064.208 0 .336a7.72 7.72 0 0 1-2.04 1.896c-.816.528-1.672.792-2.568.792-.832 0-1.512-.272-2.04-.816-.528-.544-.792-1.344-.792-2.4 0-.96.176-1.976.528-3.048a12.837 12.837 0 0 1 1.392-2.952c.576-.896 1.24-1.632 1.992-2.208.752-.576 1.544-.864 2.376-.864.608 0 1.12.216 1.536.648.416.432.624.92.624 1.464zm-3.168-.864c-.736 0-1.392.32-1.968.96-.576.64-.992 1.648-1.248 3.024 1.536-.224 2.664-.552 3.384-.984.72-.432 1.08-.92 1.08-1.464 0-.448-.112-.816-.336-1.104-.224-.288-.528-.432-.912-.432zM144.256.712c1.024 0 1.768.4 2.232 1.2.464.8.568 1.728.312 2.784-.192.192-.352.176-.48-.048-.064-.64-.344-1.192-.84-1.656-.496-.464-1.256-.696-2.28-.696-1.44 0-2.904.432-4.392 1.296-1.488.864-2.96 2.304-4.416 4.32-1.456 2.016-2.88 4.68-4.272 7.992-1.392 3.312-2.728 7.416-4.008 12.312.288-.416.616-.824.984-1.224s.776-.768 1.224-1.104a6.876 6.876 0 0 1 1.392-.816c.48-.208.96-.312 1.44-.312.736 0 1.256.304 1.56.912.304.608.456 1.312.456 2.112 0 1.024-.256 2.088-.768 3.192a12.542 12.542 0 0 1-1.944 3 11.42 11.42 0 0 1-2.568 2.208c-.928.576-1.792.864-2.592.864-.576 0-1.048-.168-1.416-.504-.368-.336-.552-.92-.552-1.752 0-.704.112-1.632.336-2.784a51.28 51.28 0 0 1 .912-3.816 64.866 64.866 0 0 1 1.392-4.392 79 79 0 0 1 1.776-4.56c2.688-6.336 5.384-11.008 8.088-14.016 2.704-3.008 5.512-4.512 8.424-4.512zm-14.16 25.632c-.48 0-.992.152-1.536.456-.544.304-1.056.76-1.536 1.368-.48.608-.888 1.376-1.224 2.304-.336.928-.552 2-.648 3.216-.064.704.024 1.2.264 1.488.24.288.6.432 1.08.432.608 0 1.216-.2 1.824-.6.608-.4 1.152-.92 1.632-1.56s.872-1.36 1.176-2.16c.304-.8.456-1.6.456-2.4 0-.928-.144-1.584-.432-1.968-.288-.384-.64-.576-1.056-.576zM154.72 1.336c.832 0 1.368.384 1.608 1.152.24.768.136 1.584-.312 2.448-.064.064-.144.064-.24 0a.463.463 0 0 1-.192-.24c.064-.384-.072-.704-.408-.96-.336-.256-.856-.384-1.56-.384-1.376 0-2.736.576-4.08 1.728-1.344 1.152-2.64 2.648-3.888 4.488-1.248 1.84-2.408 3.896-3.48 6.168a69.007 69.007 0 0 0-2.784 6.792c-.784 2.256-1.4 4.384-1.848 6.384-.448 2-.672 3.624-.672 4.872 0 .96.272 1.44.816 1.44.384 0 .76-.16 1.128-.48.368-.32.792-.8 1.272-1.44.096-.064.184-.056.264.024.08.08.104.184.072.312-.64.992-1.344 1.8-2.112 2.424-.768.624-1.424.936-1.968.936-.416 0-.752-.168-1.008-.504-.256-.336-.384-.792-.384-1.368 0-.896.16-2.056.48-3.48.32-1.424.768-3.016 1.344-4.776a71.92 71.92 0 0 1 2.088-5.544 88.43 88.43 0 0 1 2.664-5.736 73.33 73.33 0 0 1 3.048-5.424c1.072-1.728 2.176-3.248 3.312-4.56 1.136-1.312 2.28-2.352 3.432-3.12 1.152-.768 2.288-1.152 3.408-1.152zm-12.288 26.736c-.096.064-.184.04-.264-.072-.08-.112-.088-.216-.024-.312.448-.448 1.056-.96 1.824-1.536a15.132 15.132 0 0 1 2.304-1.44c.256 0 .384.144.384.432a33.398 33.398 0 0 0-1.224 2.4c-.4.864-.752 1.72-1.056 2.568a24.64 24.64 0 0 0-.744 2.448c-.192.784-.288 1.432-.288 1.944 0 .672.224 1.008.672 1.008.352 0 .696-.152 1.032-.456a15.02 15.02 0 0 0 1.176-1.224c.064-.064.144-.048.24.048s.112.208.048.336a16.195 16.195 0 0 1-1.848 1.92c-.656.576-1.272.864-1.848.864-.832 0-1.248-.528-1.248-1.584 0-.608.104-1.336.312-2.184a24.962 24.962 0 0 1 1.872-5.064c.4-.8.792-1.488 1.176-2.064-.352.256-.792.584-1.32.984s-.92.728-1.176.984zm4.32-5.424c-.096.096-.184.104-.264.024a.668.668 0 0 1-.168-.336 2.343 2.343 0 0 1-.048-.504c0-.192.048-.352.144-.48.832-1.152 2-2.384 3.504-3.696.096-.032.192-.008.288.072.096.08.112.152.048.216a13.67 13.67 0 0 0-1.92 2.184 23.272 23.272 0 0 0-1.584 2.52zm13.872 11.28a.24.24 0 0 1 .288 0c.096.064.128.16.096.288a11.632 11.632 0 0 1-1.8 1.944c-.656.56-1.272.84-1.848.84-.992 0-1.488-.64-1.488-1.92 0-1.088.192-2.296.576-3.624a23.672 23.672 0 0 1 1.584-4.008c.128-.224.192-.448.192-.672 0-.352-.16-.528-.48-.528-1.184 0-2.488.816-3.912 2.448-1.424 1.632-2.744 4.192-3.96 7.68-.064.192-.24.344-.528.456-.288.112-.56.168-.816.168-.352 0-.48-.144-.384-.432a107.672 107.672 0 0 0 1.704-4.656 74.765 74.765 0 0 0 1.56-5.136c.128-.608.016-.912-.336-.912-.32 0-.64.16-.96.48-.32.32-.656.736-1.008 1.248-.064.064-.136.048-.216-.048-.08-.096-.104-.192-.072-.288.352-.544.832-1.104 1.44-1.68.608-.576 1.264-.864 1.968-.864.8 0 1.072.544.816 1.632a23.368 23.368 0 0 1-.528 2.232 56.08 56.08 0 0 1-.72 2.328 15.23 15.23 0 0 1 1.584-2.448 13.122 13.122 0 0 1 1.896-1.968 9.914 9.914 0 0 1 1.968-1.296c.656-.32 1.272-.48 1.848-.48.384 0 .68.096.888.288a.888.888 0 0 1 .312.672c0 .416-.096.832-.288 1.248a24.755 24.755 0 0 0-1.704 3.816c-.464 1.328-.696 2.552-.696 3.672 0 .8.256 1.2.768 1.2.672 0 1.424-.56 2.256-1.68zm11.28-9.888c.096-.064.192-.056.288.024.096.08.112.184.048.312a4.495 4.495 0 0 1-.96 1.032c-.384.304-.864.44-1.44.408.288.48.432 1.104.432 1.872 0 .736-.112 1.408-.336 2.016-.224.608-.48 1.184-.768 1.728a22.867 22.867 0 0 1-.888 1.536c-.304.48-.544.976-.72 1.488a4.356 4.356 0 0 0-.24 1.56c.016.528.2 1.112.552 1.752.288.544.552 1.032.792 1.464.24.432.448.848.624 1.248s.304.808.384 1.224c.08.416.12.864.12 1.344 0 .768-.16 1.496-.48 2.184a5.443 5.443 0 0 1-1.392 1.824c-.608.528-1.344.944-2.208 1.248-.864.304-1.84.456-2.928.456-1.12 0-2.128-.16-3.024-.48-.896-.32-1.656-.744-2.28-1.272a5.316 5.316 0 0 1-1.416-1.824 5.01 5.01 0 0 1-.48-2.136c0-.96.344-1.8 1.032-2.52.688-.72 1.672-1.256 2.952-1.608.16 0 .264.056.312.168.048.112.024.216-.072.312-.672.256-1.216.64-1.632 1.152-.416.512-.624 1.2-.624 2.064 0 1.632.56 2.944 1.68 3.936 1.12.992 2.592 1.488 4.416 1.488 1.536 0 2.672-.392 3.408-1.176.736-.784 1.104-1.8 1.104-3.048 0-.736-.112-1.392-.336-1.968-.224-.576-.56-1.232-1.008-1.968-.608-1.024-.872-2.008-.792-2.952.08-.944.408-1.928.984-2.952a2.68 2.68 0 0 1 .216-.36c.08-.112.152-.248.216-.408-.352.384-.76.72-1.224 1.008-.464.288-.856.432-1.176.432-1.568 0-2.352-1.024-2.352-3.072 0-.672.128-1.408.384-2.208.256-.8.616-1.544 1.08-2.232a6.64 6.64 0 0 1 1.632-1.704 3.496 3.496 0 0 1 2.088-.672c1.12 0 1.984-.04 2.592-.12.608-.08 1.088-.28 1.44-.6zm-3.84 8.016a10.2 10.2 0 0 0 .48-1.392c.128-.48.192-.96.192-1.44 0-.928-.152-1.656-.456-2.184-.304-.528-.792-.792-1.464-.792-.768 0-1.416.384-1.944 1.152-.528.768-.792 1.856-.792 3.264 0 .928.152 1.6.456 2.016.304.416.76.624 1.368.624.352 0 .736-.112 1.152-.336a2.768 2.768 0 0 0 1.008-.912zm9.744-7.344c.64 0 1.176.104 1.608.312.432.208.648.44.648.696 0 .352-.072.752-.216 1.2a6.233 6.233 0 0 1-.456 1.104c-.064.064-.152.072-.264.024-.112-.048-.152-.12-.12-.216a2.7 2.7 0 0 0 .192-.768 1.99 1.99 0 0 0-.048-.768c-.16-.64-.608-.96-1.344-.96-.544 0-.984.16-1.32.48-.336.32-.504.8-.504 1.44 0 .512.136 1 .408 1.464.272.464.576.928.912 1.392.336.464.64.96.912 1.488s.408 1.112.408 1.752c0 1.024-.36 1.888-1.08 2.592-.72.704-1.8 1.056-3.24 1.056-.992 0-1.808-.176-2.448-.528-.64-.352-.96-.72-.96-1.104 0-.288.176-.72.528-1.296.352-.576.752-1.04 1.2-1.392.096-.064.184-.048.264.048.08.096.088.192.024.288a2.503 2.503 0 0 0-.576.888c-.128.336-.16.632-.096.888.096.544.344.952.744 1.224s.872.408 1.416.408c.832 0 1.48-.224 1.944-.672.464-.448.696-1.024.696-1.728 0-.608-.144-1.176-.432-1.704a18.72 18.72 0 0 0-.936-1.536c-.336-.496-.64-.992-.912-1.488a3.29 3.29 0 0 1-.408-1.608c0-.832.312-1.536.936-2.112.624-.576 1.464-.864 2.52-.864zm24.96-24c1.024 0 1.768.4 2.232 1.2.464.8.568 1.728.312 2.784-.192.192-.352.176-.48-.048-.064-.64-.344-1.192-.84-1.656-.496-.464-1.256-.696-2.28-.696-1.44 0-2.904.432-4.392 1.296-1.488.864-2.96 2.304-4.416 4.32-1.456 2.016-2.88 4.68-4.272 7.992-1.392 3.312-2.728 7.416-4.008 12.312.288-.416.616-.824.984-1.224s.776-.768 1.224-1.104a6.876 6.876 0 0 1 1.392-.816c.48-.208.96-.312 1.44-.312.736 0 1.256.304 1.56.912.304.608.456 1.312.456 2.112 0 1.024-.256 2.088-.768 3.192a12.542 12.542 0 0 1-1.944 3 11.42 11.42 0 0 1-2.568 2.208c-.928.576-1.792.864-2.592.864-.576 0-1.048-.168-1.416-.504-.368-.336-.552-.92-.552-1.752 0-.704.112-1.632.336-2.784a51.28 51.28 0 0 1 .912-3.816 64.866 64.866 0 0 1 1.392-4.392 79 79 0 0 1 1.776-4.56c2.688-6.336 5.384-11.008 8.088-14.016 2.704-3.008 5.512-4.512 8.424-4.512zm-14.16 25.632c-.48 0-.992.152-1.536.456-.544.304-1.056.76-1.536 1.368-.48.608-.888 1.376-1.224 2.304-.336.928-.552 2-.648 3.216-.064.704.024 1.2.264 1.488.24.288.6.432 1.08.432.608 0 1.216-.2 1.824-.6.608-.4 1.152-.92 1.632-1.56s.872-1.36 1.176-2.16c.304-.8.456-1.6.456-2.4 0-.928-.144-1.584-.432-1.968-.288-.384-.64-.576-1.056-.576zM195.136 37c-.416 0-.784-.2-1.104-.6-.32-.4-.48-.92-.48-1.56 0-.512.072-1.112.216-1.8.144-.688.336-1.416.576-2.184.24-.768.536-1.536.888-2.304.352-.768.752-1.488 1.2-2.16-.352.256-.72.536-1.104.84-.384.304-.704.584-.96.84-.096.064-.176.04-.24-.072-.064-.112-.08-.216-.048-.312.224-.224.512-.48.864-.768a24.228 24.228 0 0 1 2.376-1.704c.432-.272.84-.504 1.224-.696.128-.032.232 0 .312.096a.36.36 0 0 1 .072.336 17.36 17.36 0 0 0-2.472 4.344c-.624 1.584-.936 3.096-.936 4.536 0 .928.272 1.392.816 1.392.416 0 .936-.28 1.56-.84.624-.56 1.272-1.296 1.944-2.208a38.56 38.56 0 0 0 2.04-3.096 46.54 46.54 0 0 0 1.896-3.504c.096-.224.28-.424.552-.6s.568-.264.888-.264c.416 0 .56.128.432.384a67.115 67.115 0 0 0-1.2 2.328c-.352.72-.64 1.432-.864 2.136a14.117 14.117 0 0 0-.504 2.16 15.99 15.99 0 0 0-.168 2.4c0 1.024.288 1.536.864 1.536.256 0 .544-.136.864-.408.32-.272.64-.632.96-1.08a.24.24 0 0 1 .288 0c.096.064.112.176.048.336a8.21 8.21 0 0 1-1.56 1.752c-.592.496-1.16.744-1.704.744-.416 0-.768-.208-1.056-.624-.288-.416-.432-.976-.432-1.68 0-.768.072-1.592.216-2.472.144-.88.376-1.768.696-2.664a23.034 23.034 0 0 1-1.92 3.144 22.248 22.248 0 0 1-1.944 2.328c-.624.64-1.208 1.128-1.752 1.464-.544.336-.992.504-1.344.504zm24.768-3.072a.24.24 0 0 1 .288 0c.096.064.128.16.096.288a11.632 11.632 0 0 1-1.8 1.944c-.656.56-1.272.84-1.848.84-.992 0-1.488-.64-1.488-1.92 0-1.088.192-2.296.576-3.624a23.672 23.672 0 0 1 1.584-4.008c.128-.224.192-.448.192-.672 0-.352-.16-.528-.48-.528-1.184 0-2.488.816-3.912 2.448-1.424 1.632-2.744 4.192-3.96 7.68-.064.192-.24.344-.528.456-.288.112-.56.168-.816.168-.352 0-.48-.144-.384-.432a107.672 107.672 0 0 0 1.704-4.656 74.765 74.765 0 0 0 1.56-5.136c.128-.608.016-.912-.336-.912-.32 0-.64.16-.96.48-.32.32-.656.736-1.008 1.248-.064.064-.136.048-.216-.048-.08-.096-.104-.192-.072-.288.352-.544.832-1.104 1.44-1.68.608-.576 1.264-.864 1.968-.864.8 0 1.072.544.816 1.632a23.368 23.368 0 0 1-.528 2.232 56.08 56.08 0 0 1-.72 2.328 15.23 15.23 0 0 1 1.584-2.448 13.122 13.122 0 0 1 1.896-1.968 9.914 9.914 0 0 1 1.968-1.296c.656-.32 1.272-.48 1.848-.48.384 0 .68.096.888.288a.888.888 0 0 1 .312.672c0 .416-.096.832-.288 1.248a24.755 24.755 0 0 0-1.704 3.816c-.464 1.328-.696 2.552-.696 3.672 0 .8.256 1.2.768 1.2.672 0 1.424-.56 2.256-1.68zm10.32-9.024c.16.064.224.16.192.288-.032.128-.176.208-.432.24-.512.032-1.08.064-1.704.096-.624.032-1.256.08-1.896.144a46.484 46.484 0 0 0-1.584 4.608c-.416 1.472-.624 2.688-.624 3.648 0 1.088.416 1.632 1.248 1.632.832 0 1.744-.736 2.736-2.208.096-.064.192-.056.288.024.096.08.128.2.096.36a9.322 9.322 0 0 1-.984 1.272c-.368.4-.744.744-1.128 1.032-.384.288-.752.52-1.104.696-.352.176-.64.264-.864.264-.704 0-1.224-.216-1.56-.648-.336-.432-.504-.952-.504-1.56 0-1.056.224-2.384.672-3.984a50.163 50.163 0 0 1 1.68-4.944 97.337 97.337 0 0 0-2.304.384c-.16-.032-.2-.112-.12-.24.08-.128.224-.256.432-.384s.456-.248.744-.36c.288-.112.56-.168.816-.168.16-.032.296-.048.408-.048h.36a97.47 97.47 0 0 1 1.344-2.856 40.09 40.09 0 0 1 1.344-2.52c.192-.192.408-.36.648-.504a2.3 2.3 0 0 1 .696-.288c.224-.048.4-.064.528-.048s.176.072.144.168c-.544.832-1.08 1.76-1.608 2.784a57.954 57.954 0 0 0-1.512 3.168c.576 0 1.152-.008 1.728-.024a65.82 65.82 0 0 1 1.824-.024z" fill="#171717"/></svg>